<?xml version="1.0" standalone="no"?>
<!DOCTYPE svg PUBLIC "-//W3C//DTD SVG 20010904//EN"
 "http://www.w3.org/TR/2001/REC-SVG-20010904/DTD/svg10.dtd">
<svg version="1.0" xmlns="http://www.w3.org/2000/svg"
 width="360.000000pt" height="360.000000pt" viewBox="0 0 360.000000 360.000000"
 preserveAspectRatio="xMidYMid meet">
<metadata>
Created by potrace 1.16, written by Peter Selinger 2001-2019
</metadata>
<g transform="translate(0.000000,360.000000) scale(0.100000,-0.100000)"
fill="#000000" stroke="none">
<path d="M1365 3348 c-36 -21 -44 -42 -45 -110 l0 -68 -279 0 c-301 0 -330 -4
-398 -56 -18 -13 -45 -46 -60 -72 -28 -47 -28 -48 -31 -254 l-3 -208 1250 0
1251 0 0 193 c-1 207 -7 240 -54 302 -15 19 -48 47 -74 62 l-47 28 -295 5
-295 5 -3 67 c-2 56 -7 70 -29 92 l-26 26 -421 0 c-298 -1 -427 -4 -441 -12z
m496 -181 c39 -26 79 -81 79 -108 0 -18 -11 -19 -164 -19 l-165 0 9 29 c30
104 155 156 241 98z"/>
<path d="M1038 2170 c-75 -40 -106 -146 -62 -220 92 -157 335 -77 311 103 -15
111 -144 172 -249 117z"/>
<path d="M936 1855 c-41 -54 -65 -116 -68 -176 l-3 -54 259 -3 259 -2 -6 58
c-6 68 -32 133 -72 180 -24 29 -29 31 -44 19 -71 -63 -219 -64 -270 -4 -19 24
-25 22 -55 -18z"/>
</g>
</svg>
